<svg xmlns="http://www.w3.org/2000/svg" xmlns:xlink="http://www.w3.org/1999/xlink" width="1581" zoomAndPan="magnify" viewBox="0 0 1185.75 398.999991" height="532" preserveAspectRatio="xMidYMid meet" version="1.0"><defs><g/><clipPath id="672c76a4de"><path d="M 0 26.152344 L 346.425781 26.152344 L 346.425781 372.582031 L 0 372.582031 Z M 0 26.152344 " clip-rule="nonzero"/></clipPath></defs><g fill="#161616" fill-opacity="1"><g transform="translate(381.139, 272.909555)"><g><path d="M 81.410156 4.566406 C 124.5 4.566406 153.886719 -24.027344 153.886719 -70.09375 C 153.886719 -116.160156 124.5 -144.753906 81.410156 -144.753906 C 38.324219 -144.753906 8.933594 -116.160156 8.933594 -70.09375 C 8.933594 -24.027344 38.324219 4.566406 81.410156 4.566406 Z M 81.410156 -30.777344 C 63.738281 -30.777344 53.414062 -44.082031 53.414062 -70.292969 C 53.414062 -96.105469 63.738281 -109.410156 81.410156 -109.410156 C 99.085938 -109.410156 109.410156 -96.105469 109.410156 -70.292969 C 109.410156 -44.082031 99.085938 -30.777344 81.410156 -30.777344 Z M 81.410156 -30.777344 "/></g></g></g><g fill="#161616" fill-opacity="1"><g transform="translate(532.24706, 272.909555)"><g><path d="M 80.023438 -115.367188 L 80.023438 -141.378906 L 60.164062 -141.378906 C 26.011719 -141.378906 19.261719 -124.5 19.261719 -106.429688 L 19.261719 -102.0625 L 2.976562 -102.460938 L 2.976562 -77.835938 L 19.261719 -78.234375 L 19.261719 0 L 59.371094 0 L 59.371094 -78.234375 L 80.023438 -77.835938 L 80.023438 -102.460938 L 59.371094 -102.0625 L 59.371094 -106.628906 C 59.371094 -112.386719 61.160156 -115.367188 68.902344 -115.367188 Z M 80.023438 -115.367188 "/></g></g></g><g fill="#161616" fill-opacity="1"><g transform="translate(604.524741, 272.909555)"><g><path d="M 80.023438 -115.367188 L 80.023438 -141.378906 L 60.164062 -141.378906 C 26.011719 -141.378906 19.261719 -124.5 19.261719 -106.429688 L 19.261719 -102.0625 L 2.976562 -102.460938 L 2.976562 -77.835938 L 19.261719 -78.234375 L 19.261719 0 L 59.371094 0 L 59.371094 -78.234375 L 80.023438 -77.835938 L 80.023438 -102.460938 L 59.371094 -102.0625 L 59.371094 -106.628906 C 59.371094 -112.386719 61.160156 -115.367188 68.902344 -115.367188 Z M 80.023438 -115.367188 "/></g></g></g><g fill="#161616" fill-opacity="1"><g transform="translate(676.802422, 272.909555)"><g><path d="M 78.234375 -93.324219 C 69.894531 -101.664062 59.570312 -106.035156 48.25 -106.035156 C 24.027344 -106.035156 4.964844 -87.171875 4.964844 -51.230469 C 4.964844 -16.878906 22.4375 3.972656 49.046875 3.972656 C 62.152344 3.972656 72.675781 -1.191406 79.824219 -10.921875 L 81.015625 0 L 118.34375 0 L 118.34375 -141.378906 L 78.234375 -141.378906 Z M 61.355469 -28.59375 C 52.222656 -28.59375 45.867188 -35.34375 45.867188 -51.824219 C 45.867188 -68.304688 52.222656 -75.257812 61.355469 -75.257812 C 72.078125 -75.257812 78.632812 -65.726562 78.632812 -51.824219 C 78.632812 -37.726562 72.078125 -28.59375 61.355469 -28.59375 Z M 61.355469 -28.59375 "/></g></g></g><g fill="#161616" fill-opacity="1"><g transform="translate(793.360179, 272.909555)"><g><path d="M 78.632812 -48.054688 C 78.632812 -37.132812 72.277344 -29.785156 63.144531 -29.785156 C 55.203125 -29.785156 50.039062 -34.949219 50.039062 -44.875 L 50.039062 -102.460938 L 9.929688 -102.460938 L 9.929688 -35.144531 C 9.929688 -10.324219 24.421875 2.976562 48.648438 2.976562 C 62.351562 2.976562 73.070312 -2.183594 80.617188 -12.90625 L 82.007812 0 L 118.742188 0 L 118.742188 -102.460938 L 78.632812 -102.460938 Z M 78.632812 -48.054688 "/></g></g></g><g fill="#161616" fill-opacity="1"><g transform="translate(910.315008, 272.909555)"><g><path d="M 77.640625 -78.632812 L 77.640625 -102.460938 L 58.777344 -102.0625 L 58.777344 -133.4375 L 18.664062 -133.4375 L 18.664062 -102.0625 L 2.976562 -102.460938 L 2.976562 -78.632812 L 18.664062 -79.027344 L 18.664062 -35.742188 C 18.664062 -8.738281 27.402344 0 54.40625 0 L 77.640625 0 L 77.640625 -29.984375 L 68.703125 -29.984375 C 62.152344 -29.984375 58.777344 -33.757812 58.777344 -41.101562 L 58.777344 -79.027344 Z M 77.640625 -78.632812 "/></g></g></g><g fill="#161616" fill-opacity="1"><g transform="translate(984.18116, 272.909555)"><g><path d="M 65.726562 -61.355469 C 64.136719 -55.203125 62.351562 -48.054688 60.960938 -40.707031 C 59.371094 -48.054688 57.78125 -55.203125 55.996094 -61.355469 L 43.683594 -102.460938 L 0.992188 -102.460938 L 42.292969 -0.59375 L 41.300781 1.984375 C 39.515625 6.949219 36.335938 8.933594 29.984375 8.933594 L 15.886719 8.933594 L 15.886719 40.507812 L 39.316406 40.507812 C 60.5625 40.507812 71.683594 32.960938 78.234375 14.296875 L 118.941406 -102.460938 L 77.042969 -102.460938 Z M 65.726562 -61.355469 "/></g></g></g><path fill="#161616" d="M 80.515625 28.183594 L 265.910156 28.183594 C 267.195312 28.183594 268.476562 28.214844 269.761719 28.277344 C 271.042969 28.339844 272.324219 28.4375 273.601562 28.5625 C 274.882812 28.6875 276.15625 28.84375 277.425781 29.03125 C 278.695312 29.222656 279.960938 29.441406 281.222656 29.691406 C 282.480469 29.941406 283.734375 30.222656 284.980469 30.535156 C 286.226562 30.847656 287.464844 31.191406 288.695312 31.5625 C 289.921875 31.9375 291.140625 32.339844 292.351562 32.773438 C 293.5625 33.203125 294.757812 33.667969 295.945312 34.15625 C 297.132812 34.648438 298.304688 35.171875 299.46875 35.71875 C 300.628906 36.269531 301.777344 36.847656 302.910156 37.453125 C 304.042969 38.058594 305.160156 38.691406 306.261719 39.351562 C 307.363281 40.011719 308.445312 40.699219 309.515625 41.410156 C 310.582031 42.125 311.632812 42.863281 312.664062 43.628906 C 313.695312 44.394531 314.707031 45.183594 315.703125 46 C 316.695312 46.8125 317.667969 47.652344 318.617188 48.515625 C 319.570312 49.378906 320.5 50.265625 321.410156 51.171875 C 322.316406 52.082031 323.203125 53.011719 324.066406 53.960938 C 324.925781 54.914062 325.765625 55.886719 326.582031 56.878906 C 327.394531 57.871094 328.1875 58.882812 328.953125 59.917969 C 329.714844 60.949219 330.457031 61.996094 331.167969 63.066406 C 331.882812 64.132812 332.570312 65.21875 333.230469 66.320312 C 333.890625 67.421875 334.523438 68.539062 335.128906 69.671875 C 335.734375 70.804688 336.3125 71.953125 336.863281 73.113281 C 337.410156 74.273438 337.929688 75.449219 338.421875 76.636719 C 338.914062 77.820312 339.375 79.019531 339.808594 80.230469 C 340.242188 81.4375 340.644531 82.65625 341.015625 83.886719 C 341.390625 85.117188 341.734375 86.355469 342.042969 87.601562 C 342.355469 88.847656 342.636719 90.097656 342.890625 91.359375 C 343.140625 92.617188 343.359375 93.882812 343.546875 95.15625 C 343.734375 96.425781 343.894531 97.699219 344.019531 98.976562 C 344.144531 100.257812 344.238281 101.535156 344.300781 102.820312 C 344.367188 104.101562 344.398438 105.386719 344.398438 106.671875 L 344.398438 292.0625 C 344.398438 293.347656 344.367188 294.632812 344.300781 295.914062 C 344.238281 297.199219 344.144531 298.476562 344.019531 299.757812 C 343.894531 301.035156 343.734375 302.308594 343.546875 303.578125 C 343.359375 304.851562 343.140625 306.117188 342.890625 307.375 C 342.636719 308.636719 342.355469 309.886719 342.042969 311.132812 C 341.734375 312.378906 341.390625 313.617188 341.015625 314.847656 C 340.644531 316.078125 340.242188 317.296875 339.808594 318.503906 C 339.375 319.714844 338.914062 320.914062 338.421875 322.097656 C 337.929688 323.285156 337.410156 324.460938 336.863281 325.621094 C 336.3125 326.78125 335.734375 327.929688 335.128906 329.0625 C 334.523438 330.195312 333.890625 331.3125 333.230469 332.414062 C 332.570312 333.515625 331.882812 334.601562 331.167969 335.667969 C 330.457031 336.738281 329.714844 337.785156 328.953125 338.820312 C 328.1875 339.851562 327.394531 340.863281 326.582031 341.855469 C 325.765625 342.847656 324.925781 343.820312 324.066406 344.773438 C 323.203125 345.722656 322.316406 346.652344 321.410156 347.5625 C 320.5 348.472656 319.570312 349.355469 318.617188 350.21875 C 317.667969 351.082031 316.695312 351.921875 315.703125 352.734375 C 314.707031 353.550781 313.695312 354.339844 312.664062 355.105469 C 311.632812 355.871094 310.582031 356.609375 309.515625 357.324219 C 308.445312 358.035156 307.363281 358.722656 306.261719 359.382812 C 305.160156 360.042969 304.042969 360.675781 302.910156 361.28125 C 301.777344 361.890625 300.628906 362.464844 299.46875 363.015625 C 298.304688 363.5625 297.132812 364.085938 295.945312 364.578125 C 294.757812 365.066406 293.5625 365.53125 292.351562 365.960938 C 291.140625 366.394531 289.921875 366.796875 288.695312 367.171875 C 287.464844 367.542969 286.226562 367.886719 284.980469 368.199219 C 283.734375 368.511719 282.480469 368.792969 281.222656 369.042969 C 279.960938 369.292969 278.695312 369.511719 277.425781 369.703125 C 276.15625 369.890625 274.882812 370.046875 273.601562 370.171875 C 272.324219 370.300781 271.042969 370.394531 269.761719 370.457031 C 268.476562 370.519531 267.195312 370.550781 265.910156 370.550781 L 80.515625 370.550781 C 79.234375 370.550781 77.949219 370.519531 76.664062 370.457031 C 75.382812 370.394531 74.101562 370.300781 72.824219 370.171875 C 71.546875 370.046875 70.269531 369.890625 69 369.703125 C 67.730469 369.511719 66.464844 369.292969 65.203125 369.042969 C 63.945312 368.792969 62.691406 368.511719 61.445312 368.199219 C 60.199219 367.886719 58.960938 367.542969 57.734375 367.171875 C 56.503906 366.796875 55.285156 366.394531 54.074219 365.960938 C 52.867188 365.53125 51.667969 365.066406 50.480469 364.578125 C 49.292969 364.085938 48.121094 363.5625 46.960938 363.015625 C 45.796875 362.464844 44.652344 361.890625 43.519531 361.28125 C 42.386719 360.675781 41.269531 360.042969 40.167969 359.382812 C 39.066406 358.722656 37.980469 358.035156 36.910156 357.324219 C 35.84375 356.609375 34.792969 355.871094 33.761719 355.105469 C 32.730469 354.339844 31.71875 353.550781 30.726562 352.734375 C 29.730469 351.921875 28.761719 351.082031 27.808594 350.21875 C 26.855469 349.355469 25.925781 348.472656 25.019531 347.5625 C 24.109375 346.652344 23.222656 345.722656 22.363281 344.773438 C 21.5 343.820312 20.660156 342.847656 19.84375 341.855469 C 19.03125 340.863281 18.242188 339.851562 17.476562 338.816406 C 16.710938 337.785156 15.972656 336.738281 15.257812 335.667969 C 14.542969 334.601562 13.855469 333.515625 13.195312 332.414062 C 12.535156 331.3125 11.902344 330.195312 11.296875 329.0625 C 10.691406 327.929688 10.113281 326.78125 9.566406 325.621094 C 9.015625 324.460938 8.496094 323.285156 8.003906 322.097656 C 7.511719 320.914062 7.050781 319.714844 6.617188 318.503906 C 6.183594 317.296875 5.78125 316.078125 5.410156 314.847656 C 5.035156 313.617188 4.695312 312.378906 4.382812 311.132812 C 4.070312 309.886719 3.789062 308.636719 3.539062 307.375 C 3.289062 306.117188 3.066406 304.851562 2.878906 303.578125 C 2.691406 302.308594 2.535156 301.035156 2.40625 299.757812 C 2.28125 298.476562 2.1875 297.199219 2.125 295.914062 C 2.0625 294.632812 2.03125 293.347656 2.03125 292.0625 L 2.03125 106.671875 C 2.03125 105.386719 2.0625 104.101562 2.125 102.820312 C 2.1875 101.535156 2.28125 100.257812 2.40625 98.976562 C 2.535156 97.699219 2.691406 96.425781 2.878906 95.15625 C 3.066406 93.882812 3.289062 92.617188 3.539062 91.359375 C 3.789062 90.097656 4.070312 88.847656 4.382812 87.601562 C 4.695312 86.355469 5.035156 85.117188 5.410156 83.886719 C 5.78125 82.65625 6.183594 81.4375 6.617188 80.230469 C 7.050781 79.019531 7.511719 77.820312 8.003906 76.636719 C 8.496094 75.449219 9.015625 74.273438 9.566406 73.113281 C 10.113281 71.953125 10.691406 70.804688 11.296875 69.671875 C 11.902344 68.539062 12.535156 67.421875 13.195312 66.320312 C 13.855469 65.21875 14.542969 64.132812 15.257812 63.066406 C 15.972656 61.996094 16.710938 60.949219 17.476562 59.917969 C 18.242188 58.882812 19.03125 57.871094 19.84375 56.878906 C 20.660156 55.886719 21.5 54.914062 22.363281 53.960938 C 23.222656 53.011719 24.109375 52.082031 25.019531 51.171875 C 25.925781 50.265625 26.855469 49.378906 27.808594 48.515625 C 28.761719 47.652344 29.730469 46.8125 30.726562 46 C 31.71875 45.183594 32.730469 44.394531 33.761719 43.628906 C 34.792969 42.863281 35.84375 42.125 36.910156 41.410156 C 37.980469 40.699219 39.066406 40.011719 40.167969 39.351562 C 41.269531 38.691406 42.386719 38.058594 43.519531 37.453125 C 44.652344 36.847656 45.796875 36.269531 46.960938 35.71875 C 48.121094 35.171875 49.292969 34.648438 50.480469 34.15625 C 51.667969 33.667969 52.867188 33.203125 54.074219 32.773438 C 55.285156 32.339844 56.503906 31.9375 57.734375 31.5625 C 58.960938 31.191406 60.199219 30.847656 61.445312 30.535156 C 62.691406 30.222656 63.945312 29.941406 65.203125 29.691406 C 66.464844 29.441406 67.730469 29.222656 69 29.03125 C 70.269531 28.84375 71.546875 28.6875 72.824219 28.5625 C 74.101562 28.4375 75.382812 28.339844 76.664062 28.277344 C 77.949219 28.214844 79.234375 28.183594 80.515625 28.183594 Z M 80.515625 28.183594 " fill-opacity="1" fill-rule="nonzero"/><g clip-path="url(#672c76a4de)"><path stroke-linecap="butt" transform="matrix(1.35323, 0, 0, 1.35323, 0.000000000000085247, 26.153802)" fill="none" stroke-linejoin="miter" d="M 59.498836 1.499961 L 196.500305 1.499961 C 197.45 1.499961 198.396809 1.523053 199.346504 1.569239 C 200.293312 1.615425 201.240121 1.68759 202.184043 1.779962 C 203.130851 1.872333 204.071887 1.987798 205.010035 2.126355 C 205.948184 2.267799 206.883446 2.429449 207.815822 2.614193 C 208.745311 2.798936 209.671913 3.006772 210.592742 3.237701 C 211.513571 3.46863 212.428627 3.722651 213.33791 3.996879 C 214.244306 4.273994 215.144928 4.571315 216.039778 4.891729 C 216.934628 5.209256 217.817931 5.552763 218.695461 5.91359 C 219.57299 6.277303 220.438974 6.664108 221.299184 7.068234 C 222.156508 7.475246 223.005172 7.902465 223.842289 8.34989 C 224.679406 8.797314 225.504977 9.264945 226.319002 9.752783 C 227.133026 10.24062 227.932617 10.748664 228.723549 11.274027 C 229.511594 11.802277 230.288092 12.347847 231.050158 12.913622 C 231.812223 13.479398 232.559856 14.062494 233.295942 14.665796 C 234.029141 15.266211 234.747907 15.886832 235.449354 16.524773 C 236.153687 17.162715 236.8407 17.817975 237.513281 18.487669 C 238.182975 19.16025 238.838236 19.847263 239.476177 20.54871 C 240.111231 21.253043 240.731853 21.971809 241.335155 22.705009 C 241.93557 23.438208 242.521552 24.18584 243.087328 24.950792 C 243.650217 25.712858 244.198673 26.48647 244.724037 27.277401 C 245.252286 28.065446 245.76033 28.867924 246.248167 29.681949 C 246.736005 30.495973 247.203636 31.321544 247.651061 32.158661 C 248.098485 32.995779 248.525704 33.844442 248.932716 34.701766 C 249.336842 35.55909 249.720761 36.42796 250.084474 37.30549 C 250.448187 38.180133 250.788807 39.066323 251.109221 39.961172 C 251.429635 40.853135 251.726956 41.753758 252.001184 42.663041 C 252.278299 43.572323 252.532321 44.487379 252.760363 45.408208 C 252.991292 46.329037 253.199128 47.252753 253.386758 48.185128 C 253.571501 49.114617 253.733151 50.049879 253.871708 50.990915 C 254.010266 51.929063 254.128617 52.870099 254.220988 53.814021 C 254.31336 54.760829 254.382639 55.704751 254.428824 56.654446 C 254.477897 57.601255 254.50099 58.55095 254.50099 59.500645 L 254.50099 196.499227 C 254.50099 197.448922 254.477897 198.398618 254.428824 199.345426 C 254.382639 200.295121 254.31336 201.239043 254.220988 202.185852 C 254.128617 203.129774 254.010266 204.070809 253.871708 205.008958 C 253.733151 205.949993 253.571501 206.885255 253.386758 207.814744 C 253.199128 208.74712 252.991292 209.670836 252.760363 210.591665 C 252.532321 211.512494 252.278299 212.42755 252.001184 213.336832 C 251.726956 214.246115 251.429635 215.146738 251.109221 216.038701 C 250.788807 216.93355 250.448187 217.81974 250.084474 218.694383 C 249.720761 219.571913 249.336842 220.440783 248.932716 221.298107 C 248.525704 222.15543 248.098485 223.004094 247.651061 223.841211 C 247.203636 224.678329 246.736005 225.5039 246.248167 226.317924 C 245.76033 227.131949 245.252286 227.934427 244.724037 228.722471 C 244.198673 229.513403 243.650217 230.287015 243.087328 231.051967 C 242.521552 231.814032 241.93557 232.561665 241.335155 233.294864 C 240.731853 234.028063 240.111231 234.74683 239.476177 235.451163 C 238.838236 236.152609 238.182975 236.839623 237.513281 237.512204 C 236.8407 238.184784 236.153687 238.837158 235.449354 239.475099 C 234.747907 240.11304 234.029141 240.733662 233.295942 241.334077 C 232.559856 241.937379 231.812223 242.520474 231.050158 243.08625 C 230.288092 243.652026 229.511594 244.197596 228.723549 244.725846 C 227.932617 245.251209 227.133026 245.759253 226.319002 246.24709 C 225.504977 246.734927 224.679406 247.202558 223.842289 247.649983 C 223.005172 248.100294 222.156508 248.524626 221.299184 248.931639 C 220.438974 249.335764 219.57299 249.72257 218.695461 250.086283 C 217.817931 250.44711 216.934628 250.790616 216.039778 251.108144 C 215.144928 251.428558 214.244306 251.725879 213.33791 252.002993 C 212.428627 252.277221 211.513571 252.531243 210.592742 252.762172 C 209.671913 252.993101 208.745311 253.200937 207.815822 253.38568 C 206.883446 253.570423 205.948184 253.732074 205.010035 253.873518 C 204.071887 254.012075 203.130851 254.127539 202.184043 254.219911 C 201.240121 254.315169 200.293312 254.384448 199.346504 254.430634 C 198.396809 254.476819 197.45 254.499912 196.500305 254.499912 L 59.498836 254.499912 C 58.552028 254.499912 57.602333 254.476819 56.652637 254.430634 C 55.705829 254.384448 54.75902 254.315169 53.815098 254.219911 C 52.871176 254.127539 51.927254 254.012075 50.989106 253.873518 C 50.050957 253.732074 49.115695 253.570423 48.183319 253.38568 C 47.25383 253.200937 46.327228 252.993101 45.406399 252.762172 C 44.48557 252.531243 43.570514 252.277221 42.664118 252.002993 C 41.754835 251.725879 40.854213 251.428558 39.959363 251.108144 C 39.0674 250.790616 38.18121 250.44711 37.30368 250.086283 C 36.426151 249.72257 35.560167 249.335764 34.702843 248.931639 C 33.842633 248.524626 32.996856 248.100294 32.159739 247.649983 C 31.322621 247.202558 30.497051 246.734927 29.683026 246.24709 C 28.869002 245.759253 28.066524 245.251209 27.275592 244.725846 C 26.487547 244.197596 25.711049 243.652026 24.948983 243.08625 C 24.186918 242.520474 23.439285 241.937379 22.706086 241.334077 C 21.97 240.733662 21.25412 240.11304 20.549787 239.475099 C 19.845454 238.837158 19.158441 238.184784 18.488747 237.512204 C 17.816166 236.839623 17.160905 236.152609 16.525851 235.451163 C 15.88791 234.74683 15.267288 234.028063 14.663986 233.294864 C 14.063571 232.561665 13.480476 231.814032 12.9147 231.04908 C 12.348924 230.287015 11.803354 229.513403 11.275105 228.722471 C 10.746855 227.934427 10.238811 227.131949 9.750974 226.317924 C 9.263136 225.5039 8.795505 224.678329 8.34808 223.841211 C 7.900656 223.004094 7.473437 222.15543 7.069312 221.298107 C 6.662299 220.440783 6.27838 219.571913 5.914667 218.694383 C 5.550954 217.81974 5.210334 216.93355 4.88992 216.038701 C 4.569506 215.146738 4.272185 214.246115 3.997957 213.336832 C 3.720842 212.42755 3.469707 211.512494 3.238778 210.591665 C 3.007849 209.670836 2.800013 208.74712 2.61527 207.814744 C 2.430527 206.885255 2.26599 205.949993 2.127433 205.008958 C 1.988875 204.070809 1.873411 203.129774 1.778153 202.185852 C 1.685781 201.239043 1.616502 200.295121 1.570317 199.345426 C 1.524131 198.398618 1.501038 197.448922 1.501038 196.499227 L 1.501038 59.500645 C 1.501038 58.55095 1.524131 57.601255 1.570317 56.654446 C 1.616502 55.704751 1.685781 54.760829 1.778153 53.814021 C 1.873411 52.870099 1.988875 51.929063 2.127433 50.990915 C 2.26599 50.049879 2.430527 49.114617 2.61527 48.185128 C 2.800013 47.252753 3.007849 46.329037 3.238778 45.408208 C 3.469707 44.487379 3.720842 43.572323 3.997957 42.663041 C 4.272185 41.753758 4.569506 40.853135 4.88992 39.961172 C 5.210334 39.066323 5.550954 38.180133 5.914667 37.30549 C 6.27838 36.42796 6.662299 35.55909 7.069312 34.701766 C 7.473437 33.844442 7.900656 32.995779 8.34808 32.158661 C 8.795505 31.321544 9.263136 30.495973 9.750974 29.681949 C 10.238811 28.867924 10.746855 28.065446 11.275105 27.277401 C 11.803354 26.48647 12.348924 25.712858 12.9147 24.950792 C 13.480476 24.18584 14.063571 23.438208 14.663986 22.705009 C 15.267288 21.971809 15.88791 21.253043 16.525851 20.54871 C 17.160905 19.847263 17.816166 19.16025 18.488747 18.487669 C 19.158441 17.817975 19.845454 17.162715 20.549787 16.524773 C 21.25412 15.886832 21.97 15.266211 22.706086 14.665796 C 23.439285 14.062494 24.186918 13.479398 24.948983 12.913622 C 25.711049 12.347847 26.487547 11.802277 27.275592 11.274027 C 28.066524 10.748664 28.869002 10.24062 29.683026 9.752783 C 30.497051 9.264945 31.322621 8.797314 32.159739 8.34989 C 32.996856 7.902465 33.842633 7.475246 34.702843 7.068234 C 35.560167 6.664108 36.426151 6.277303 37.30368 5.91359 C 38.18121 5.552763 39.0674 5.209256 39.959363 4.891729 C 40.854213 4.571315 41.754835 4.273994 42.664118 3.996879 C 43.570514 3.722651 44.48557 3.46863 45.406399 3.237701 C 46.327228 3.006772 47.25383 2.798936 48.183319 2.614193 C 49.115695 2.429449 50.050957 2.267799 50.989106 2.126355 C 51.927254 1.987798 52.871176 1.872333 53.815098 1.779962 C 54.75902 1.68759 55.705829 1.615425 56.652637 1.569239 C 57.602333 1.523053 58.552028 1.499961 59.498836 1.499961 Z M 59.498836 1.499961 " stroke="#fffdfb" stroke-width="1.5" stroke-opacity="0.1" stroke-miterlimit="4"/></g><path fill="#f43f5e" d="M 121.789062 120.878906 C 122.722656 120.878906 123.648438 120.925781 124.574219 121.015625 C 125.503906 121.109375 126.421875 121.246094 127.335938 121.425781 C 128.246094 121.609375 129.148438 121.832031 130.039062 122.105469 C 130.929688 122.375 131.804688 122.6875 132.664062 123.042969 C 133.527344 123.398438 134.367188 123.796875 135.1875 124.234375 C 136.007812 124.675781 136.804688 125.152344 137.578125 125.667969 C 138.351562 126.1875 139.097656 126.738281 139.820312 127.332031 C 140.539062 127.921875 141.226562 128.546875 141.886719 129.203125 C 142.542969 129.863281 143.167969 130.550781 143.757812 131.269531 C 144.347656 131.988281 144.902344 132.734375 145.417969 133.507812 C 145.9375 134.285156 146.414062 135.082031 146.851562 135.902344 C 147.292969 136.722656 147.6875 137.5625 148.046875 138.421875 C 148.402344 139.28125 148.714844 140.15625 148.984375 141.046875 C 149.253906 141.9375 149.480469 142.839844 149.664062 143.753906 C 149.84375 144.667969 149.980469 145.585938 150.070312 146.511719 C 150.164062 147.4375 150.207031 148.367188 150.207031 149.296875 L 150.207031 249.4375 C 150.207031 250.367188 150.164062 251.296875 150.070312 252.222656 C 149.980469 253.148438 149.84375 254.066406 149.664062 254.980469 C 149.480469 255.894531 149.253906 256.796875 148.984375 257.6875 C 148.714844 258.578125 148.402344 259.453125 148.046875 260.3125 C 147.6875 261.171875 147.292969 262.011719 146.851562 262.832031 C 146.414062 263.652344 145.9375 264.449219 145.417969 265.226562 C 144.902344 266 144.347656 266.746094 143.757812 267.464844 C 143.167969 268.183594 142.542969 268.875 141.886719 269.53125 C 141.226562 270.1875 140.539062 270.8125 139.820312 271.402344 C 139.097656 271.996094 138.351562 272.546875 137.578125 273.066406 C 136.804688 273.582031 136.007812 274.058594 135.1875 274.5 C 134.367188 274.9375 133.527344 275.335938 132.664062 275.691406 C 131.804688 276.046875 130.929688 276.359375 130.039062 276.632812 C 129.148438 276.902344 128.246094 277.128906 127.335938 277.308594 C 126.421875 277.488281 125.503906 277.625 124.574219 277.71875 C 123.648438 277.808594 122.722656 277.855469 121.789062 277.855469 C 120.859375 277.855469 119.929688 277.808594 119.003906 277.71875 C 118.078125 277.625 117.160156 277.488281 116.246094 277.308594 C 115.332031 277.128906 114.433594 276.902344 113.542969 276.632812 C 112.652344 276.359375 111.777344 276.046875 110.914062 275.691406 C 110.054688 275.335938 109.214844 274.9375 108.394531 274.5 C 107.574219 274.058594 106.777344 273.582031 106.003906 273.066406 C 105.230469 272.546875 104.480469 271.996094 103.761719 271.402344 C 103.042969 270.8125 102.355469 270.1875 101.695312 269.53125 C 101.039062 268.875 100.414062 268.183594 99.824219 267.464844 C 99.234375 266.746094 98.679688 266 98.164062 265.226562 C 97.644531 264.449219 97.167969 263.652344 96.726562 262.832031 C 96.289062 262.011719 95.890625 261.171875 95.535156 260.3125 C 95.179688 259.453125 94.867188 258.578125 94.597656 257.6875 C 94.328125 256.796875 94.101562 255.894531 93.917969 254.980469 C 93.738281 254.066406 93.601562 253.148438 93.507812 252.222656 C 93.417969 251.296875 93.371094 250.367188 93.371094 249.4375 L 93.371094 149.296875 C 93.371094 148.367188 93.417969 147.4375 93.507812 146.511719 C 93.601562 145.585938 93.738281 144.667969 93.917969 143.753906 C 94.101562 142.839844 94.328125 141.9375 94.597656 141.046875 C 94.867188 140.15625 95.179688 139.28125 95.535156 138.421875 C 95.890625 137.5625 96.289062 136.722656 96.726562 135.902344 C 97.167969 135.082031 97.644531 134.285156 98.164062 133.507812 C 98.679688 132.734375 99.234375 131.988281 99.824219 131.269531 C 100.414062 130.550781 101.039062 129.863281 101.695312 129.203125 C 102.355469 128.546875 103.042969 127.921875 103.761719 127.332031 C 104.480469 126.738281 105.230469 126.1875 106.003906 125.667969 C 106.777344 125.152344 107.574219 124.675781 108.394531 124.234375 C 109.214844 123.796875 110.054688 123.398438 110.914062 123.042969 C 111.777344 122.6875 112.652344 122.375 113.542969 122.105469 C 114.433594 121.832031 115.332031 121.609375 116.246094 121.425781 C 117.160156 121.246094 118.078125 121.109375 119.003906 121.015625 C 119.929688 120.925781 120.859375 120.878906 121.789062 120.878906 Z M 121.789062 120.878906 " fill-opacity="1" fill-rule="nonzero"/><path fill="#a78bfa" d="M 224.636719 120.878906 C 225.566406 120.878906 226.496094 120.925781 227.421875 121.015625 C 228.347656 121.109375 229.265625 121.246094 230.179688 121.425781 C 231.09375 121.609375 231.996094 121.832031 232.886719 122.105469 C 233.777344 122.375 234.652344 122.6875 235.511719 123.042969 C 236.371094 123.398438 237.210938 123.796875 238.03125 124.234375 C 238.851562 124.675781 239.652344 125.152344 240.425781 125.667969 C 241.199219 126.1875 241.945312 126.738281 242.664062 127.332031 C 243.382812 127.921875 244.074219 128.546875 244.730469 129.203125 C 245.390625 129.863281 246.011719 130.550781 246.601562 131.269531 C 247.195312 131.988281 247.746094 132.734375 248.265625 133.507812 C 248.78125 134.285156 249.257812 135.082031 249.699219 135.902344 C 250.136719 136.722656 250.535156 137.5625 250.890625 138.421875 C 251.246094 139.28125 251.558594 140.15625 251.832031 141.046875 C 252.101562 141.9375 252.328125 142.839844 252.507812 143.753906 C 252.691406 144.667969 252.824219 145.585938 252.917969 146.511719 C 253.007812 147.4375 253.054688 148.367188 253.054688 149.296875 L 253.054688 249.4375 C 253.054688 250.367188 253.007812 251.296875 252.917969 252.222656 C 252.824219 253.148438 252.691406 254.066406 252.507812 254.980469 C 252.328125 255.894531 252.101562 256.796875 251.832031 257.6875 C 251.558594 258.578125 251.246094 259.453125 250.890625 260.3125 C 250.535156 261.171875 250.136719 262.011719 249.699219 262.832031 C 249.257812 263.652344 248.78125 264.449219 248.265625 265.226562 C 247.746094 266 247.195312 266.746094 246.601562 267.464844 C 246.011719 268.183594 245.390625 268.875 244.730469 269.53125 C 244.074219 270.1875 243.382812 270.8125 242.664062 271.402344 C 241.945312 271.996094 241.199219 272.546875 240.425781 273.066406 C 239.652344 273.582031 238.851562 274.058594 238.03125 274.5 C 237.210938 274.9375 236.371094 275.335938 235.511719 275.691406 C 234.652344 276.046875 233.777344 276.359375 232.886719 276.632812 C 231.996094 276.902344 231.09375 277.128906 230.179688 277.308594 C 229.265625 277.488281 228.347656 277.625 227.421875 277.71875 C 226.496094 277.808594 225.566406 277.855469 224.636719 277.855469 C 223.707031 277.855469 222.777344 277.808594 221.851562 277.71875 C 220.925781 277.625 220.003906 277.488281 219.09375 277.308594 C 218.179688 277.128906 217.277344 276.902344 216.386719 276.632812 C 215.496094 276.359375 214.621094 276.046875 213.761719 275.691406 C 212.902344 275.335938 212.0625 274.9375 211.238281 274.5 C 210.417969 274.058594 209.621094 273.582031 208.847656 273.066406 C 208.074219 272.546875 207.328125 271.996094 206.609375 271.402344 C 205.886719 270.8125 205.199219 270.1875 204.542969 269.53125 C 203.882812 268.875 203.257812 268.183594 202.667969 267.464844 C 202.078125 266.746094 201.523438 266 201.007812 265.226562 C 200.492188 264.449219 200.011719 263.652344 199.574219 262.832031 C 199.136719 262.011719 198.738281 261.171875 198.382812 260.3125 C 198.027344 259.453125 197.710938 258.578125 197.441406 257.6875 C 197.171875 256.796875 196.945312 255.894531 196.765625 254.980469 C 196.582031 254.066406 196.445312 253.148438 196.355469 252.222656 C 196.265625 251.296875 196.21875 250.367188 196.21875 249.4375 L 196.21875 149.296875 C 196.21875 148.367188 196.265625 147.4375 196.355469 146.511719 C 196.445312 145.585938 196.582031 144.667969 196.765625 143.753906 C 196.945312 142.839844 197.171875 141.9375 197.441406 141.046875 C 197.710938 140.15625 198.027344 139.28125 198.382812 138.421875 C 198.738281 137.5625 199.136719 136.722656 199.574219 135.902344 C 200.011719 135.082031 200.492188 134.285156 201.007812 133.507812 C 201.523438 132.734375 202.078125 131.988281 202.667969 131.269531 C 203.257812 130.550781 203.882812 129.863281 204.542969 129.203125 C 205.199219 128.546875 205.886719 127.921875 206.609375 127.332031 C 207.328125 126.738281 208.074219 126.1875 208.847656 125.667969 C 209.621094 125.152344 210.417969 124.675781 211.238281 124.234375 C 212.0625 123.796875 212.902344 123.398438 213.761719 123.042969 C 214.621094 122.6875 215.496094 122.375 216.386719 122.105469 C 217.277344 121.832031 218.179688 121.609375 219.09375 121.425781 C 220.003906 121.246094 220.925781 121.109375 221.851562 121.015625 C 222.777344 120.925781 223.707031 120.878906 224.636719 120.878906 Z M 224.636719 120.878906 " fill-opacity="1" fill-rule="nonzero"/></svg>